<?xml version="1.0" standalone="no"?>
<!DOCTYPE svg PUBLIC "-//W3C//DTD SVG 20010904//EN"
 "http://www.w3.org/TR/2001/REC-SVG-20010904/DTD/svg10.dtd">
<svg version="1.0" xmlns="http://www.w3.org/2000/svg"
 width="700.000000pt" height="700.000000pt" viewBox="0 0 700.000000 700.000000"
 preserveAspectRatio="xMidYMid meet">
<metadata>
Created by potrace 1.11, written by Peter Selinger 2001-2013
</metadata>
<g transform="translate(0.000000,700.000000) scale(0.100000,-0.100000)"
fill="#000000" stroke="none">
<path d="M1905 6370 l-1590 -568 3 -44 c3 -49 469 -4107 477 -4154 6 -34 -151
55 2233 -1265 l483 -268 32 19 c18 10 625 347 1351 749 725 402 1320 732 1322
733 2 3 468 4032 486 4207 3 23 -25 34 -722 282 -2146 766 -2466 879 -2475
878 -5 0 -725 -257 -1600 -569z m725 -2255 l0 -615 80 0 80 0 0 -615 0 -615
-250 0 -250 0 0 1230 0 1230 170 0 170 0 0 -615z m650 0 l0 -615 80 0 80 0 0
-615 0 -615 -265 0 -265 0 0 615 0 615 75 0 75 0 0 615 0 615 110 0 110 0 0
-615z m650 0 l0 -615 80 0 80 0 0 -615 0 -615 -265 0 -265 0 0 615 0 615 75 0
75 0 0 615 0 615 110 0 110 0 0 -615z m830 -615 l0 -1230 -275 0 -275 0 0 615
0 615 75 0 75 0 0 615 0 615 200 0 200 0 0 -1230z"/>
</g>
</svg>
